<svg width="131" height="32" viewBox="0 0 131 32" fill="none" xmlns="http://www.w3.org/2000/svg">
<path d="M49.0039 23.6953C48.8945 23.6953 48.7812 23.7109 48.6641 23.7422C48.5547 23.7656 48.4414 23.7969 48.3242 23.8359C48.207 23.8672 48.0859 23.8984 47.9609 23.9297C47.8438 23.9531 47.7188 23.9648 47.5859 23.9648L47.0586 23.8945C46.9414 23.8945 46.832 23.9062 46.7305 23.9297C46.6367 23.9531 46.5391 23.9648 46.4375 23.9648H45.582C45.5117 23.9648 45.4492 23.9609 45.3945 23.9531C45.3398 23.9453 45.2891 23.9336 45.2422 23.918C44.9453 23.8555 44.7969 23.668 44.7969 23.3555C44.7969 23.2617 44.8047 23.1836 44.8203 23.1211C44.8438 23.0586 44.9219 22.9922 45.0547 22.9219C45.1875 22.8672 45.3516 22.8281 45.5469 22.8047C45.75 22.7812 45.957 22.7617 46.168 22.7461C46.3789 22.7227 46.5781 22.6992 46.7656 22.6758C46.9609 22.6445 47.1133 22.5938 47.2227 22.5234C47.2695 22.5 47.3242 22.4375 47.3867 22.3359C47.457 22.2344 47.5195 22.125 47.5742 22.0078C47.6367 21.8828 47.6875 21.7656 47.7266 21.6562C47.7734 21.5469 47.7969 21.4688 47.7969 21.4219L47.6562 20.4727L47.9141 19.9102L47.6562 19.418L47.9141 16.7227L47.832 15.5039C47.793 15.4648 47.7734 15.3789 47.7734 15.2461C47.7734 15.1211 47.7812 15.0156 47.7969 14.9297C47.8203 14.8438 47.8438 14.7734 47.8672 14.7188C47.8984 14.6562 47.9219 14.5977 47.9375 14.543C47.9609 14.4883 47.9727 14.4258 47.9727 14.3555C47.9727 14.1523 47.9375 13.9609 47.8672 13.7812C47.8047 13.5938 47.7734 13.3906 47.7734 13.1719L47.9141 12.3398C47.9141 12.2617 47.9102 12.168 47.9023 12.0586C47.9023 11.9492 47.8945 11.8359 47.8789 11.7188C47.8633 11.6016 47.8359 11.4922 47.7969 11.3906C47.7656 11.2812 47.7188 11.1914 47.6562 11.1211C47.6562 11.0898 47.6641 11.043 47.6797 10.9805C47.7031 10.918 47.7148 10.8242 47.7148 10.6992C47.7148 10.5977 47.7031 10.5078 47.6797 10.4297C47.6641 10.3438 47.6562 10.2852 47.6562 10.2539C47.6562 10.2148 47.6484 10.168 47.6328 10.1133C47.6172 10.0586 47.6016 10.0312 47.5859 10.0312L46.8359 9.33984C46.7422 9.33984 46.582 9.31641 46.3555 9.26953C46.1367 9.22266 45.9102 9.16016 45.6758 9.08203C45.4492 9.00391 45.2461 8.91406 45.0664 8.8125C44.8867 8.70312 44.7969 8.58984 44.7969 8.47266C44.7969 8.25391 44.8672 8.10938 45.0078 8.03906C45.1484 7.96094 45.3008 7.92188 45.4648 7.92188C45.5273 7.92188 45.5859 7.92578 45.6406 7.93359C45.7031 7.94141 45.7578 7.95313 45.8047 7.96875C46.1328 7.98437 46.457 8.01172 46.7773 8.05078C47.0977 8.08984 47.4219 8.10938 47.75 8.10938C48 8.10938 48.25 8.08984 48.5 8.05078C48.75 8.01172 49 7.98437 49.25 7.96875C49.3594 7.92969 49.5117 7.89844 49.707 7.875C49.9023 7.85156 50.1055 7.83594 50.3164 7.82812C50.5352 7.8125 50.7461 7.80078 50.9492 7.79297C51.1523 7.78516 51.3164 7.77344 51.4414 7.75781C51.6914 7.71875 51.9414 7.67188 52.1914 7.61719C52.4414 7.55469 52.6914 7.52344 52.9414 7.52344C53.1055 7.52344 53.2617 7.55859 53.4102 7.62891C53.5586 7.69922 53.6328 7.85156 53.6328 8.08594C53.6328 8.13281 53.6055 8.17578 53.5508 8.21484C53.5039 8.25391 53.4453 8.29297 53.375 8.33203C53.3125 8.36328 53.2539 8.39453 53.1992 8.42578C53.1445 8.44922 53.1133 8.47656 53.1055 8.50781C53.082 8.53125 53.0352 8.57422 52.9648 8.63672C52.9023 8.69141 52.832 8.75 52.7539 8.8125C52.6836 8.875 52.6133 8.93359 52.543 8.98828C52.4727 9.04297 52.418 9.07812 52.3789 9.09375C52.2617 9.09375 52.0898 9.11328 51.8633 9.15234C51.6445 9.19141 51.4258 9.25391 51.207 9.33984C50.9883 9.41797 50.7969 9.51562 50.6328 9.63281C50.4688 9.75 50.3867 9.88281 50.3867 10.0312V11.7539C50.3867 11.7617 50.3906 11.7891 50.3984 11.8359C50.4141 11.8828 50.4297 11.9375 50.4453 12C50.4609 12.0625 50.4727 12.1289 50.4805 12.1992C50.4961 12.2617 50.5078 12.3086 50.5156 12.3398C50.5938 12.3945 50.6328 12.4688 50.6328 12.5625C50.5078 12.7891 50.4141 13.0234 50.3516 13.2656C50.2969 13.5 50.2695 13.7344 50.2695 13.9688L50.3867 14.8359L50.3281 15.5508C50.3281 15.6602 50.3398 15.7695 50.3633 15.8789C50.3945 15.9883 50.4258 16.1016 50.457 16.2188C50.4883 16.3281 50.5156 16.4414 50.5391 16.5586C50.5703 16.668 50.5859 16.7852 50.5859 16.9102C50.5859 17.0195 50.5703 17.1289 50.5391 17.2383C50.5156 17.3398 50.4883 17.4414 50.457 17.543C50.4258 17.6367 50.3945 17.7344 50.3633 17.8359C50.3398 17.9375 50.3281 18.0391 50.3281 18.1406C50.3281 18.25 50.3359 18.3438 50.3516 18.4219C50.3672 18.5 50.3984 18.6016 50.4453 18.7266V20.168C50.4141 20.2539 50.3945 20.3203 50.3867 20.3672C50.3867 20.4062 50.3867 20.4609 50.3867 20.5312C50.3867 20.8281 50.418 21.0938 50.4805 21.3281C50.543 21.5625 50.6328 21.8125 50.75 22.0781C50.75 22.1016 50.7891 22.1445 50.8672 22.207C50.9453 22.2617 51.0312 22.3203 51.125 22.3828C51.2266 22.4375 51.3203 22.4883 51.4062 22.5352C51.4922 22.582 51.543 22.6055 51.5586 22.6055C51.7227 22.6055 51.8555 22.5898 51.957 22.5586C52.0586 22.5195 52.1641 22.5 52.2734 22.5C52.3672 22.5 52.5 22.5117 52.6719 22.5352C52.8438 22.5586 53 22.6094 53.1406 22.6875C53.2188 22.75 53.2891 22.8203 53.3516 22.8984C53.4141 22.9688 53.4453 23.0469 53.4453 23.1328C53.4453 23.25 53.4297 23.3672 53.3984 23.4844C53.3672 23.6016 53.3164 23.6797 53.2461 23.7188C53.1523 23.8125 53.0312 23.8594 52.8828 23.8594C52.8125 23.8594 52.7344 23.8633 52.6484 23.8711C52.5625 23.8789 52.4844 23.8867 52.4141 23.8945L51.9453 24C51.7812 24 51.6016 24 51.4062 24C51.2188 23.9922 51.0273 23.9844 50.832 23.9766C50.6445 23.9688 50.457 23.957 50.2695 23.9414C50.0898 23.9258 49.9258 23.9102 49.7773 23.8945C49.7539 23.8945 49.7109 23.8867 49.6484 23.8711C49.5859 23.8477 49.5156 23.8242 49.4375 23.8008C49.3594 23.7773 49.2852 23.7578 49.2148 23.7422C49.1523 23.7266 49.1055 23.7188 49.0742 23.7188C49.0664 23.7188 49.0586 23.7148 49.0508 23.707C49.043 23.707 49.0352 23.707 49.0273 23.707C49.0195 23.6992 49.0117 23.6953 49.0039 23.6953ZM56.9141 23.918C56.7031 23.9727 56.4961 24.0078 56.293 24.0234C56.0898 24.0469 55.8789 24.0586 55.6602 24.0586L55.3555 24.082C55.2617 24.082 55.2031 24.0664 55.1797 24.0352C55.125 23.9648 55.0742 23.8906 55.0273 23.8125C54.9805 23.7266 54.957 23.6211 54.957 23.4961C54.957 23.4102 54.9805 23.3281 55.0273 23.25C55.0742 23.1719 55.125 23.1172 55.1797 23.0859C55.2656 23.0547 55.3438 23.0391 55.4141 23.0391C55.4844 23.0312 55.5547 23.0273 55.625 23.0273C55.6953 23.0273 55.7617 23.0234 55.8242 23.0156C55.8867 23 55.9531 22.9844 56.0234 22.9688C56.2031 22.8984 56.3438 22.8203 56.4453 22.7344C56.5469 22.6484 56.625 22.5586 56.6797 22.4648C56.7344 22.3633 56.7656 22.2617 56.7734 22.1602C56.7891 22.0586 56.7969 21.957 56.7969 21.8555L56.7617 21.2227C56.7461 21.207 56.7266 21.1758 56.7031 21.1289C56.6797 21.0742 56.6562 21.0391 56.6328 21.0234L56.5742 20.8359C56.5742 20.7578 56.6055 20.6992 56.668 20.6602C56.7305 20.6211 56.7617 20.5469 56.7617 20.4375L56.6797 19.8633C56.6797 19.7383 56.6875 19.6133 56.7031 19.4883C56.7188 19.3555 56.7695 19.2383 56.8555 19.1367V18.3281L56.7617 18.082L56.9141 17.5898V17.2734C56.9141 17.0781 56.8984 16.8789 56.8672 16.6758C56.8359 16.4727 56.7812 16.2852 56.7031 16.1133C56.6328 15.9336 56.5312 15.7695 56.3984 15.6211C56.2734 15.4727 56.1172 15.3516 55.9297 15.2578L55.3555 14.9531C55.293 14.9375 55.2344 14.8906 55.1797 14.8125C55.125 14.7344 55.0898 14.6602 55.0742 14.5898C55.0898 14.5508 55.1172 14.4961 55.1562 14.4258C55.1953 14.3555 55.2383 14.2891 55.2852 14.2266C55.3398 14.1562 55.3984 14.0977 55.4609 14.0508C55.5312 13.9961 55.5977 13.9688 55.6602 13.9688H56.2461C56.2539 13.9688 56.2773 13.957 56.3164 13.9336C56.3555 13.9102 56.3945 13.8867 56.4336 13.8633C56.4727 13.832 56.5117 13.8047 56.5508 13.7812C56.5898 13.75 56.6172 13.7305 56.6328 13.7227C56.6406 13.7148 56.6641 13.7031 56.7031 13.6875C56.7188 13.6797 56.7383 13.6719 56.7617 13.6641H57.2891C57.2969 13.6562 57.3125 13.6406 57.3359 13.6172C57.3672 13.5938 57.4023 13.5664 57.4414 13.5352C57.4805 13.5039 57.5234 13.4648 57.5703 13.418C57.5859 13.4023 57.625 13.3945 57.6875 13.3945C57.75 13.3945 57.8125 13.3945 57.875 13.3945C57.9062 13.3945 57.9531 13.4023 58.0156 13.418C58.0859 13.4258 58.1523 13.4453 58.2148 13.4766C58.2852 13.5078 58.3438 13.5469 58.3906 13.5938C58.4375 13.6328 58.4609 13.6836 58.4609 13.7461C58.4609 13.7539 58.457 13.7578 58.4492 13.7578C58.4492 13.7578 58.4492 13.7617 58.4492 13.7695L58.4375 13.7812C58.4375 13.7969 58.4219 13.8477 58.3906 13.9336C58.3672 14.0195 58.3516 14.0703 58.3438 14.0859V14.2031C58.3438 14.2188 58.3555 14.2461 58.3789 14.2852C58.4023 14.3164 58.4258 14.3516 58.4492 14.3906C58.4727 14.4219 58.4922 14.4531 58.5078 14.4844C58.5312 14.5078 58.543 14.5234 58.543 14.5312L58.7891 14.9531C58.8047 15.0156 58.8516 15.0547 58.9297 15.0703C59.0078 15.0781 59.0742 15.082 59.1289 15.082C59.2383 15.082 59.3398 15.0391 59.4336 14.9531C59.5273 14.8594 59.6094 14.7812 59.6797 14.7188L60.043 14.2031L60.0664 14.1797C60.0898 14.1562 60.1016 14.1445 60.1016 14.1445C60.1172 14.1445 60.1602 14.1289 60.2305 14.0977C60.3008 14.0664 60.3477 14.043 60.3711 14.0273C60.3789 14.0195 60.4062 13.9883 60.4531 13.9336C60.5 13.8789 60.5508 13.8203 60.6055 13.7578C60.6602 13.6953 60.7109 13.6406 60.7578 13.5938C60.8047 13.5391 60.8359 13.5078 60.8516 13.5C60.8594 13.4922 60.8867 13.4805 60.9336 13.4648C60.9883 13.4492 61.043 13.4336 61.0977 13.418C61.1602 13.4023 61.2148 13.3906 61.2617 13.3828C61.3164 13.3672 61.3477 13.3594 61.3555 13.3594C61.457 13.3203 61.5352 13.2812 61.5898 13.2422C61.6445 13.2031 61.6953 13.1719 61.7422 13.1484C61.7969 13.1172 61.8594 13.0938 61.9297 13.0781C62 13.0625 62.1016 13.0547 62.2344 13.0547H62.4688L62.9609 13.3008C62.9688 13.3008 62.9922 13.3047 63.0312 13.3125C63.0703 13.3125 63.1133 13.3164 63.1602 13.3242C63.207 13.332 63.25 13.3398 63.2891 13.3477C63.3281 13.3477 63.3555 13.3516 63.3711 13.3594C63.4023 13.3594 63.4609 13.3672 63.5469 13.3828C63.6406 13.3906 63.6875 13.4023 63.6875 13.418C63.7031 13.418 63.7461 13.4414 63.8164 13.4883C63.8867 13.5273 63.9336 13.5664 63.957 13.6055C63.9648 13.6055 63.9844 13.5938 64.0156 13.5703C64.0469 13.5469 64.0742 13.5352 64.0977 13.5352C64.207 13.5742 64.3125 13.6445 64.4141 13.7461C64.5156 13.8477 64.5977 13.9336 64.6602 14.0039C64.6992 14.0508 64.7461 14.1172 64.8008 14.2031C64.8633 14.2812 64.9219 14.3594 64.9766 14.4375C65.0312 14.5156 65.0781 14.5859 65.1172 14.6484C65.1641 14.7031 65.1875 14.7305 65.1875 14.7305C65.1875 14.7383 65.1914 14.7773 65.1992 14.8477C65.2148 14.918 65.2305 15.0039 65.2461 15.1055C65.2617 15.1992 65.2773 15.2969 65.293 15.3984C65.3086 15.5 65.3203 15.582 65.3281 15.6445L65.2461 16.8867L65.4102 17.9414C65.4102 18.0664 65.3984 18.1602 65.375 18.2227C65.3516 18.2852 65.3242 18.3359 65.293 18.375C65.2617 18.4141 65.2344 18.4531 65.2109 18.4922C65.1875 18.5234 65.1758 18.5742 65.1758 18.6445C65.1758 18.7539 65.1953 18.8477 65.2344 18.9258C65.2812 19.0039 65.3125 19.0859 65.3281 19.1719C65.3281 19.1875 65.332 19.2305 65.3398 19.3008C65.3477 19.3711 65.3555 19.457 65.3633 19.5586C65.3711 19.6523 65.3789 19.75 65.3867 19.8516C65.3945 19.9453 65.3984 20.0234 65.3984 20.0859V21.0352C65.3438 21.1445 65.3086 21.2305 65.293 21.293C65.2773 21.3477 65.2695 21.418 65.2695 21.5039L65.2461 22.1133L65.293 22.6172C65.293 22.6406 65.2969 22.6719 65.3047 22.7109C65.3203 22.7422 65.3359 22.7656 65.3516 22.7812C65.4062 22.8203 65.5039 22.8516 65.6445 22.875C65.793 22.8984 65.9336 22.957 66.0664 23.0508L66.1602 23.1445C66.1836 23.2539 66.2344 23.3477 66.3125 23.4258C66.3906 23.5039 66.4297 23.5859 66.4297 23.6719C66.4297 23.7578 66.418 23.8438 66.3945 23.9297C66.3789 24.0156 66.3164 24.0586 66.207 24.0586H66.1602C66.0039 24.0742 65.8594 24.0859 65.7266 24.0938C65.5938 24.1094 65.4492 24.1172 65.293 24.1172C65.2227 24.1172 65.1445 24.1133 65.0586 24.1055C64.9727 24.1055 64.8867 24.0977 64.8008 24.082C64.6602 24.0664 64.5234 24.0547 64.3906 24.0469C64.2656 24.0391 64.1406 24.0352 64.0156 24.0352C63.8438 24.0352 63.6719 24.0391 63.5 24.0469C63.3359 24.0547 63.1641 24.0664 62.9844 24.082C62.9453 24.0664 62.8945 24.0547 62.832 24.0469C62.7773 24.0391 62.7188 24.0352 62.6562 24.0352C62.5469 24.0352 62.4414 24.0273 62.3398 24.0117C62.2383 24.0039 62.1406 24 62.0469 24H61.7422C61.6328 24 61.5586 23.9492 61.5195 23.8477C61.4805 23.7461 61.4609 23.6094 61.4609 23.4375C61.4609 23.3281 61.4922 23.2227 61.5547 23.1211C61.6172 23.0195 61.7266 22.9609 61.8828 22.9453L62.6562 22.8398C62.7656 22.832 62.8281 22.7852 62.8438 22.6992C62.8672 22.6055 62.8867 22.5312 62.9023 22.4766L62.9609 22.3594C63.0156 22.2656 63.0547 22.1914 63.0781 22.1367C63.1016 22.0742 63.1172 22.0195 63.125 21.9727C63.1406 21.918 63.1484 21.8594 63.1484 21.7969C63.1562 21.7344 63.168 21.6523 63.1836 21.5508L63.2422 21.3047L63.1836 21V20.332L63.1016 19.6992L63.2422 19.1602C63.2266 19.0273 63.2148 18.8984 63.207 18.7734C63.207 18.6406 63.207 18.5039 63.207 18.3633C63.207 18.2305 63.207 18.0977 63.207 17.9648C63.2148 17.8242 63.2266 17.6875 63.2422 17.5547C63.2734 17.4844 63.2891 17.4258 63.2891 17.3789C63.2969 17.3242 63.3008 17.2422 63.3008 17.1328C63.293 17.1172 63.2578 17.0742 63.1953 17.0039C63.1328 16.9258 63.1016 16.8789 63.1016 16.8633C63.0859 16.8398 63.0664 16.7891 63.043 16.7109C63.0273 16.625 63.0078 16.5352 62.9844 16.4414C62.9688 16.3477 62.9531 16.2578 62.9375 16.1719C62.9219 16.0859 62.9102 16.0312 62.9023 16.0078C62.8945 16 62.8711 15.9766 62.832 15.9375C62.8008 15.8984 62.7656 15.8594 62.7266 15.8203C62.6875 15.7812 62.6484 15.7461 62.6094 15.7148C62.5781 15.6758 62.5586 15.6523 62.5508 15.6445C62.5508 15.6367 62.543 15.6016 62.5273 15.5391C62.5117 15.4766 62.4922 15.4453 62.4688 15.4453C62.4531 15.4219 62.4336 15.3906 62.4102 15.3516C62.3867 15.3047 62.3672 15.2734 62.3516 15.2578C62.3281 15.25 62.2812 15.2383 62.2109 15.2227C62.1406 15.1992 62.0664 15.1797 61.9883 15.1641C61.918 15.1484 61.8477 15.1328 61.7773 15.1172C61.7148 15.1016 61.6719 15.0898 61.6484 15.082H61.4961C61.043 15.082 60.6445 15.1445 60.3008 15.2695C59.9648 15.3867 59.6289 15.5938 59.293 15.8906C59.2617 15.9141 59.2188 15.9531 59.1641 16.0078C59.1094 16.0625 59.0547 16.1172 59 16.1719C58.9453 16.2266 58.8945 16.2773 58.8477 16.3242C58.8086 16.3633 58.7891 16.3867 58.7891 16.3945C58.7812 16.4023 58.7734 16.4297 58.7656 16.4766C58.7578 16.5234 58.75 16.5742 58.7422 16.6289C58.7344 16.6836 58.7266 16.7344 58.7188 16.7812C58.7188 16.8281 58.7188 16.8555 58.7188 16.8633C58.6875 16.9727 58.6562 17.0781 58.625 17.1797C58.5938 17.2812 58.5781 17.3984 58.5781 17.5312C58.5781 17.7578 58.5898 17.9531 58.6133 18.1172C58.6445 18.2812 58.6602 18.4648 58.6602 18.668C58.6602 18.793 58.6406 18.9062 58.6016 19.0078C58.5625 19.1016 58.543 19.2383 58.543 19.418L58.6602 20.25L58.543 20.8359V21C58.5586 21.0156 58.5742 21.0664 58.5898 21.1523C58.6133 21.2383 58.625 21.2891 58.625 21.3047V22.0547L58.6602 22.3008C58.668 22.3242 58.6914 22.3555 58.7305 22.3945C58.7695 22.4258 58.8125 22.4609 58.8594 22.5C58.9062 22.5312 58.9492 22.5625 58.9883 22.5938C59.0273 22.6172 59.0547 22.6328 59.0703 22.6406C59.0859 22.6562 59.1172 22.6758 59.1641 22.6992C59.2188 22.7148 59.2773 22.7344 59.3398 22.7578C59.4023 22.7734 59.4609 22.7891 59.5156 22.8047C59.5781 22.8203 59.625 22.832 59.6562 22.8398C59.7188 22.8711 59.7734 22.8906 59.8203 22.8984C59.8672 22.9062 59.9102 22.9141 59.9492 22.9219C59.9961 22.9219 60.0352 22.9297 60.0664 22.9453C60.1055 22.9609 60.1445 22.9961 60.1836 23.0508C60.207 23.0742 60.2344 23.0898 60.2656 23.0977C60.2969 23.0977 60.3242 23.1055 60.3477 23.1211C60.3789 23.1289 60.4023 23.1445 60.418 23.168C60.4336 23.1914 60.4414 23.2305 60.4414 23.2852L60.4648 23.5547C60.4648 23.6172 60.4531 23.6719 60.4297 23.7188C60.4062 23.7578 60.3516 23.8047 60.2656 23.8594C60.1953 23.8984 60.1367 23.9453 60.0898 24C60.0508 24.0547 59.9883 24.082 59.9023 24.082C59.8164 24.082 59.7305 24.0977 59.6445 24.1289C59.5586 24.168 59.4961 24.1875 59.457 24.1875H59.3164C58.9883 24.1328 58.6445 24.0703 58.2852 24C57.9336 23.9219 57.5781 23.8828 57.2188 23.8828L56.9141 23.918ZM80.3516 9.84375L79.7773 9.24609C79.582 9.07422 79.3984 8.93359 79.2266 8.82422C79.0625 8.71484 78.8984 8.62891 78.7344 8.56641C78.5703 8.49609 78.4023 8.44922 78.2305 8.42578C78.0664 8.40234 77.8828 8.39062 77.6797 8.39062C77.6094 8.39062 77.5664 8.39844 77.5508 8.41406C77.3398 8.41406 77.1719 8.41406 77.0469 8.41406C76.9297 8.41406 76.8398 8.41406 76.7773 8.41406C76.7148 8.41406 76.6719 8.41797 76.6484 8.42578C76.6328 8.42578 76.625 8.42578 76.625 8.42578H75.7227C75.5898 8.46484 75.4531 8.48828 75.3125 8.49609C75.1719 8.50391 75.0352 8.50781 74.9023 8.50781C74.6055 8.50781 74.3789 8.51172 74.2227 8.51953C74.0742 8.52734 73.9531 8.55859 73.8594 8.61328C73.7734 8.64453 73.7227 8.6875 73.707 8.74219C73.6914 8.78906 73.6836 8.83203 73.6836 8.87109C73.6836 9.03516 73.6602 9.15625 73.6133 9.23438C73.5742 9.30469 73.4883 9.38281 73.3555 9.46875C73.332 9.48438 73.3125 9.52344 73.2969 9.58594C73.2891 9.64844 73.2773 9.71875 73.2617 9.79688C73.2539 9.875 73.2461 9.95312 73.2383 10.0312C73.2383 10.1094 73.2383 10.1719 73.2383 10.2188C73.2383 10.3984 73.2656 10.5703 73.3203 10.7344C73.375 10.8984 73.4023 11.082 73.4023 11.2852L73.2969 12.0234C73.2969 12.2031 73.3359 12.3828 73.4141 12.5625C73.5 12.7422 73.543 12.9375 73.543 13.1484L73.3555 14.8945C73.3555 14.9648 73.3867 15.0469 73.4492 15.1406C73.5117 15.2266 73.5625 15.293 73.6016 15.3398C73.8438 15.3711 74.0898 15.418 74.3398 15.4805C74.5898 15.5352 74.8359 15.5625 75.0781 15.5625C75.1328 15.5625 75.1797 15.5586 75.2188 15.5508C75.2656 15.5352 75.3086 15.4844 75.3477 15.3984C75.4336 15.3906 75.5352 15.3828 75.6523 15.375C75.7773 15.3672 75.918 15.3633 76.0742 15.3633C76.2852 15.3633 76.5117 15.3633 76.7539 15.3633C76.9961 15.3555 77.2344 15.3438 77.4688 15.3281C77.7031 15.3047 77.918 15.2734 78.1133 15.2344C78.3086 15.1875 78.4609 15.1211 78.5703 15.0352C78.6797 14.9648 78.7617 14.8633 78.8164 14.7305C78.8789 14.5977 78.9258 14.457 78.957 14.3086C78.9883 14.1523 79.0156 13.9961 79.0391 13.8398C79.0625 13.6836 79.0938 13.543 79.1328 13.418C79.1797 13.2852 79.2422 13.1797 79.3203 13.1016C79.4062 13.0156 79.5273 12.9727 79.6836 12.9727C79.7305 12.9727 79.7734 12.9805 79.8125 12.9961C79.8594 13.0117 79.9023 13.0625 79.9414 13.1484V13.6406C79.9414 14.0156 79.9023 14.375 79.8242 14.7188C79.7852 14.9922 79.7461 15.2422 79.707 15.4688C79.6758 15.6875 79.6602 15.9102 79.6602 16.1367C79.6602 16.332 79.6875 16.5234 79.7422 16.7109C79.8047 16.8906 79.8672 17.0703 79.9297 17.25C80 17.4219 80.0625 17.5977 80.1172 17.7773C80.1797 17.957 80.2109 18.1406 80.2109 18.3281C80.2109 18.4453 80.207 18.5352 80.1992 18.5977C80.1992 18.6523 80.1836 18.6875 80.1523 18.7031C80.1133 18.7656 80.0859 18.8125 80.0703 18.8438C80.0547 18.875 80.0117 18.8906 79.9414 18.8906C79.8242 18.8906 79.7344 18.8477 79.6719 18.7617C79.6172 18.6758 79.5469 18.5898 79.4609 18.5039L79.2969 18.1406C79.2109 17.9531 79.1289 17.7734 79.0508 17.6016C78.9727 17.4297 78.8789 17.2695 78.7695 17.1211C78.668 16.9648 78.5469 16.8203 78.4062 16.6875C78.2734 16.5469 78.1094 16.4219 77.9141 16.3125H77.3867C77.1133 16.3125 76.832 16.3086 76.543 16.3008C76.2539 16.2852 76.0039 16.2578 75.793 16.2188L75.0781 16.0898C74.875 16.0898 74.6523 16.125 74.4102 16.1953C74.1758 16.2656 73.9531 16.3047 73.7422 16.3125C73.6719 16.3984 73.5898 16.5078 73.4961 16.6406C73.4023 16.7656 73.3555 16.9023 73.3555 17.0508C73.4805 17.6289 73.5859 18.1992 73.6719 18.7617C73.7578 19.3164 73.8008 19.875 73.8008 20.4375C73.8008 20.7031 73.793 20.8828 73.7773 20.9766C73.7695 21.0625 73.7578 21.1328 73.7422 21.1875C73.8047 21.375 73.8906 21.543 74 21.6914C74.1172 21.832 74.25 21.9609 74.3984 22.0781C74.5469 22.1875 74.7031 22.2891 74.8672 22.3828C75.0312 22.4766 75.1914 22.5625 75.3477 22.6406C75.3555 22.6406 75.3789 22.6641 75.418 22.7109C75.4648 22.7578 75.4883 22.7891 75.4883 22.8047C75.5195 22.8203 75.5898 22.8359 75.6992 22.8516C75.8086 22.8594 75.8789 22.8633 75.9102 22.8633C75.9727 22.8633 76.0234 22.8633 76.0625 22.8633C76.1094 22.8633 76.1602 22.8555 76.2148 22.8398C76.2773 22.832 76.3281 22.8281 76.3672 22.8281C76.4141 22.8281 76.4648 22.8281 76.5195 22.8281C76.5742 22.8281 76.6328 22.8281 76.6953 22.8281C76.7578 22.8281 76.8125 22.832 76.8594 22.8398C76.9141 22.8555 76.9648 22.8633 77.0117 22.8633C77.0664 22.8633 77.1172 22.8633 77.1641 22.8633C77.2031 22.9023 77.25 22.9414 77.3047 22.9805C77.3672 23.0195 77.4219 23.0664 77.4688 23.1211C77.5234 23.1758 77.5664 23.2344 77.5977 23.2969C77.6367 23.3594 77.6562 23.4297 77.6562 23.5078C77.6562 23.5938 77.6367 23.6836 77.5977 23.7773C77.5586 23.8633 77.5039 23.9453 77.4336 24.0234C77.3711 24.1094 77.3008 24.1758 77.2227 24.2227C77.1445 24.2773 77.0664 24.3047 76.9883 24.3047H76.9648C76.8789 24.3203 76.7812 24.3281 76.6719 24.3281C76.5703 24.3359 76.4805 24.3398 76.4023 24.3398C76.293 24.3398 76.1875 24.3359 76.0859 24.3281C75.9922 24.3281 75.8672 24.3203 75.7109 24.3047L75.4883 24.2461C75.3555 24.1758 75.207 24.1133 75.043 24.0586C74.8789 24.0039 74.707 23.957 74.5273 23.918C74.3555 23.8789 74.1797 23.8516 74 23.8359C73.8281 23.8125 73.668 23.8008 73.5195 23.8008C73.3555 23.8008 73.2148 23.8086 73.0977 23.8242C72.9805 23.832 72.8242 23.8633 72.6289 23.918C72.4492 23.9492 72.2617 23.9727 72.0664 23.9883C71.8789 23.9961 71.6953 24 71.5156 24C71.3125 24 71.1211 23.9961 70.9414 23.9883C70.7695 23.9727 70.582 23.9492 70.3789 23.918C70.2852 23.9492 70.1953 24 70.1094 24.0703C70.0312 24.1406 69.9258 24.1914 69.793 24.2227C69.7383 24.207 69.6875 24.1914 69.6406 24.1758C69.6016 24.168 69.5547 24.1641 69.5 24.1641C69.4609 24.1797 69.4023 24.1875 69.3242 24.1875H68.8789C68.6992 24.125 68.5508 24.0625 68.4336 24C68.3242 23.9375 68.2422 23.8164 68.1875 23.6367C68.1875 23.3867 68.3164 23.1758 68.5742 23.0039C68.7617 22.9883 69.0039 22.9375 69.3008 22.8516C69.6055 22.7656 69.8984 22.6523 70.1797 22.5117C70.4609 22.3711 70.7031 22.2031 70.9062 22.0078C71.1172 21.8125 71.2227 21.5977 71.2227 21.3633C71.2227 20.9492 71.2109 20.5938 71.1875 20.2969C71.1719 19.9922 71.1484 19.6992 71.1172 19.418C71.0938 19.1367 71.0703 18.8438 71.0469 18.5391C71.0312 18.2266 71.0234 17.8516 71.0234 17.4141C71.0234 17.2812 71.0352 17.1523 71.0586 17.0273C71.0898 16.8945 71.1172 16.7656 71.1406 16.6406C71.1719 16.5078 71.1992 16.3789 71.2227 16.2539C71.2539 16.1211 71.2695 15.9883 71.2695 15.8555C71.2695 15.832 71.2656 15.8008 71.2578 15.7617C71.2578 15.7227 71.2578 15.6836 71.2578 15.6445C71.2578 15.5977 71.2539 15.5586 71.2461 15.5273C71.2461 15.4883 71.2461 15.4688 71.2461 15.4688L71.1055 14.9531V14.0508C71.1055 13.918 71.0898 13.7852 71.0586 13.6523C71.0273 13.5195 70.9922 13.3867 70.9531 13.2539C70.9219 13.1211 70.8906 12.9922 70.8594 12.8672C70.8359 12.7344 70.8242 12.6055 70.8242 12.4805C70.8242 12.4492 70.8281 12.3984 70.8359 12.3281C70.8516 12.25 70.8672 12.1953 70.8828 12.1641C70.9141 12.0078 70.9375 11.8516 70.9531 11.6953C70.9766 11.5312 70.9883 11.3672 70.9883 11.2031C70.9883 11.0469 70.9805 10.8945 70.9648 10.7461C70.9492 10.5898 70.9219 10.4336 70.8828 10.2773C70.8828 10.1367 70.8477 10 70.7773 9.86719C70.7148 9.72656 70.6289 9.59375 70.5195 9.46875C70.418 9.34375 70.3047 9.23438 70.1797 9.14062C70.0547 9.03906 69.9375 8.96484 69.8281 8.91797C69.6875 8.86328 69.4961 8.82812 69.2539 8.8125C69.0117 8.79688 68.7695 8.76953 68.5273 8.73047C68.2852 8.68359 68.0742 8.60938 67.8945 8.50781C67.7227 8.39844 67.6367 8.22266 67.6367 7.98047V7.80469C67.7617 7.73438 67.9141 7.66406 68.0938 7.59375C68.2812 7.51562 68.4414 7.47656 68.5742 7.47656H68.8555C68.9648 7.47656 69.0703 7.48828 69.1719 7.51172C69.2812 7.53516 69.3711 7.58984 69.4414 7.67578C69.5742 7.69922 69.707 7.71875 69.8398 7.73438C69.9727 7.75 70.1055 7.75781 70.2383 7.75781C70.3555 7.75781 70.4844 7.75 70.625 7.73438C70.7656 7.71875 70.9062 7.69922 71.0469 7.67578C71.0859 7.61328 71.1133 7.57813 71.1289 7.57031C71.1523 7.5625 71.1914 7.55859 71.2461 7.55859C71.4102 7.55859 71.5703 7.58984 71.7266 7.65234C71.8828 7.71484 72.0625 7.74609 72.2656 7.74609H72.5234C72.6094 7.74609 72.6992 7.74609 72.793 7.74609C72.8867 7.73828 72.9883 7.71484 73.0977 7.67578C73.3789 7.72266 73.6875 7.74609 74.0234 7.74609C74.3359 7.74609 74.6523 7.72266 74.9727 7.67578C75.2617 7.57422 75.5664 7.52344 75.8867 7.52344C76.2148 7.52344 76.5547 7.50781 76.9062 7.47656C77.0859 7.46094 77.2539 7.44922 77.4102 7.44141C77.5742 7.42578 77.7383 7.41797 77.9023 7.41797C78.0195 7.41797 78.1406 7.42578 78.2656 7.44141C78.3906 7.44922 78.5195 7.46094 78.6523 7.47656C78.6836 7.49219 78.7227 7.51953 78.7695 7.55859C78.8242 7.58984 78.875 7.625 78.9219 7.66406C78.9766 7.70312 79.0273 7.73828 79.0742 7.76953C79.1211 7.79297 79.1562 7.80469 79.1797 7.80469C79.25 7.80469 79.3086 7.79297 79.3555 7.76953C79.4102 7.74609 79.4766 7.71484 79.5547 7.67578C79.6797 7.64453 79.8086 7.625 79.9414 7.61719C80.0742 7.60156 80.2109 7.59375 80.3516 7.59375C80.5938 7.59375 80.8359 7.62109 81.0781 7.67578C81.0938 7.67578 81.1289 7.70312 81.1836 7.75781C81.2461 7.80469 81.3086 7.85938 81.3711 7.92188C81.4414 7.97656 81.5039 8.03125 81.5586 8.08594C81.6133 8.13281 81.6445 8.16016 81.6523 8.16797V9.84375C81.8086 10.2266 81.8867 10.6133 81.8867 11.0039C81.8867 11.0977 81.8828 11.1953 81.875 11.2969C81.875 11.3906 81.8594 11.4805 81.8281 11.5664C81.8047 11.6523 81.7617 11.7227 81.6992 11.7773C81.6367 11.832 81.5508 11.8594 81.4414 11.8594C81.3945 11.8047 81.3398 11.7383 81.2773 11.6602C81.2148 11.582 81.1484 11.5039 81.0781 11.4258C81.0156 11.3398 80.9531 11.2578 80.8906 11.1797C80.8359 11.1016 80.7891 11.0312 80.75 10.9688C80.75 10.9531 80.7344 10.9102 80.7031 10.8398C80.6719 10.7617 80.6367 10.6836 80.5977 10.6055C80.5586 10.5195 80.5195 10.4414 80.4805 10.3711C80.4492 10.293 80.4258 10.2422 80.4102 10.2188C80.3945 10.2031 80.3789 10.1406 80.3633 10.0312C80.3555 9.92188 80.3516 9.85938 80.3516 9.84375ZM82.7539 23.2852C82.7539 23.2227 82.793 23.1797 82.8711 23.1562C82.957 23.125 83.0195 23.0898 83.0586 23.0508C83.1445 22.957 83.2422 22.8906 83.3516 22.8516C83.4688 22.8125 83.5508 22.7812 83.5977 22.7578C83.6602 22.7188 83.7031 22.6719 83.7266 22.6172C83.75 22.5547 83.8047 22.5078 83.8906 22.4766L84.1719 22.3828C84.2188 22.3828 84.2578 22.3477 84.2891 22.2773C84.3203 22.207 84.3398 22.168 84.3477 22.1602C84.3398 22.1211 84.3359 22.0547 84.3359 21.9609C84.3359 21.8672 84.3359 21.7773 84.3359 21.6914C84.3359 21.582 84.3359 21.4844 84.3359 21.3984C84.3359 21.3047 84.3398 21.2266 84.3477 21.1641L84.418 20.8125V19.0078C84.418 18.9922 84.4219 18.957 84.4297 18.9023C84.4375 18.8477 84.4453 18.7891 84.4531 18.7266C84.4609 18.6641 84.4688 18.6055 84.4766 18.5508C84.4844 18.4961 84.4922 18.4609 84.5 18.4453V18.3633C84.4922 18.3164 84.4844 18.2461 84.4766 18.1523C84.4688 18.0508 84.4609 17.9531 84.4531 17.8594C84.4453 17.7578 84.4375 17.668 84.4297 17.5898C84.4219 17.5117 84.418 17.4648 84.418 17.4492C84.4102 17.4258 84.4023 17.3867 84.3945 17.332C84.3867 17.2773 84.3789 17.2188 84.3711 17.1562C84.3633 17.0938 84.3555 17.0352 84.3477 16.9805C84.3477 16.9258 84.3477 16.8867 84.3477 16.8633C84.3242 16.7539 84.2852 16.6484 84.2305 16.5469C84.1758 16.4453 84.1133 16.3516 84.043 16.2656C83.9727 16.1719 83.8984 16.082 83.8203 15.9961C83.7422 15.9023 83.668 15.8125 83.5977 15.7266C83.5898 15.7266 83.5625 15.6992 83.5156 15.6445C83.4688 15.582 83.4453 15.543 83.4453 15.5273L82.7539 14.8828L83.3164 14.3086C83.332 14.3008 83.3633 14.2852 83.4102 14.2617C83.4648 14.2383 83.5195 14.2148 83.5742 14.1914C83.6367 14.1602 83.6953 14.1328 83.75 14.1094C83.8125 14.0859 83.8594 14.0703 83.8906 14.0625C83.9062 14.0469 83.9375 14.0352 83.9844 14.0273C84.0391 14.0117 84.0938 14 84.1484 13.9922C84.2109 13.9844 84.2656 13.9805 84.3125 13.9805C84.3672 13.9727 84.4023 13.9688 84.418 13.9688C84.5664 13.9219 84.6992 13.8594 84.8164 13.7812C84.9414 13.6953 85.0625 13.6133 85.1797 13.5352C85.2969 13.4492 85.4141 13.375 85.5312 13.3125C85.6562 13.25 85.7969 13.2188 85.9531 13.2188H86.1406C86.1484 13.2266 86.1914 13.2695 86.2695 13.3477C86.3477 13.418 86.4062 13.4688 86.4453 13.5C86.5 13.5859 86.5273 13.6953 86.5273 13.8281C86.5273 13.9531 86.5312 14.0781 86.5391 14.2031C86.5469 14.3203 86.5742 14.4219 86.6211 14.5078C86.668 14.5938 86.7695 14.6367 86.9258 14.6367C86.9492 14.6367 86.9727 14.6367 86.9961 14.6367C87.0273 14.6367 87.043 14.6289 87.043 14.6133C87.0742 14.6055 87.1172 14.5898 87.1719 14.5664C87.2266 14.5352 87.2812 14.5 87.3359 14.4609C87.3984 14.4219 87.4531 14.3828 87.5 14.3438C87.5547 14.3047 87.5938 14.2734 87.6172 14.25L88.0977 13.8867C88.1133 13.8711 88.1641 13.8359 88.25 13.7812C88.3359 13.7188 88.3945 13.6719 88.4258 13.6406C88.4336 13.6406 88.4648 13.6406 88.5195 13.6406C88.5742 13.6328 88.6289 13.6289 88.6836 13.6289C88.7461 13.6211 88.8047 13.6133 88.8594 13.6055C88.9141 13.5977 88.9531 13.5898 88.9766 13.582C88.9844 13.582 89.0078 13.5742 89.0469 13.5586C89.0938 13.543 89.1406 13.5273 89.1875 13.5117C89.2422 13.4961 89.2891 13.4805 89.3281 13.4648C89.3672 13.4492 89.3906 13.4414 89.3984 13.4414H89.5273C89.707 13.4414 89.8516 13.4961 89.9609 13.6055C90.0781 13.7148 90.1836 13.8359 90.2773 13.9688C90.332 14.0391 90.3633 14.1406 90.3711 14.2734C90.3867 14.3984 90.4141 14.4922 90.4531 14.5547C90.4531 14.5781 90.4648 14.6016 90.4883 14.625L90.5352 14.6719C90.5352 15.0469 90.4805 15.3828 90.3711 15.6797C90.2695 15.9688 90.0938 16.2031 89.8438 16.3828C89.7734 16.3984 89.6914 16.4141 89.5977 16.4297C89.5039 16.4375 89.4258 16.4414 89.3633 16.4414C89.1992 16.4414 89.0781 16.4336 89 16.418C88.9219 16.3945 88.8633 16.3633 88.8242 16.3242C88.7852 16.2852 88.75 16.2344 88.7188 16.1719C88.6953 16.1094 88.6523 16.0352 88.5898 15.9492C88.5352 15.8789 88.4688 15.8242 88.3906 15.7852C88.3203 15.7383 88.25 15.707 88.1797 15.6914C88.1094 15.668 88.043 15.6523 87.9805 15.6445C87.9258 15.6367 87.8906 15.6328 87.875 15.6328L87.3711 15.5508L86.9492 15.668L86.8086 15.8555C86.7695 15.8633 86.7148 15.9023 86.6445 15.9727C86.5742 16.0352 86.5039 16.1094 86.4336 16.1953C86.3711 16.2734 86.3164 16.3594 86.2695 16.4531C86.2227 16.5391 86.1992 16.6094 86.1992 16.6641L86.1406 17.5078L86.1992 17.8359V18.4453C86.1992 18.4609 86.2031 18.5078 86.2109 18.5859C86.2266 18.6562 86.2422 18.7109 86.2578 18.75L86.1758 19.8047L86.2578 20.2031C86.2578 20.2578 86.2422 20.3125 86.2109 20.3672C86.1875 20.4219 86.1758 20.4922 86.1758 20.5781L86.2578 20.9766L86.1758 21.4102C86.1758 21.418 86.1758 21.4297 86.1758 21.4453C86.1758 21.4609 86.1836 21.4688 86.1992 21.4688C86.207 21.5156 86.2305 21.582 86.2695 21.668C86.3164 21.7539 86.3633 21.8438 86.4102 21.9375C86.4648 22.0312 86.5117 22.1211 86.5508 22.207C86.5977 22.2852 86.6289 22.3438 86.6445 22.3828C86.6445 22.3906 86.6523 22.4062 86.668 22.4297C86.6836 22.4531 86.7031 22.4648 86.7266 22.4648C86.7969 22.5039 86.8633 22.5547 86.9258 22.6172C86.9961 22.6797 87.0781 22.7266 87.1719 22.7578C87.2266 22.7812 87.2969 22.8047 87.3828 22.8281C87.4688 22.8438 87.5586 22.8633 87.6523 22.8867C87.7539 22.9102 87.8516 22.9375 87.9453 22.9688C88.0469 23 88.1406 23.0391 88.2266 23.0859C88.2734 23.1484 88.3164 23.2227 88.3555 23.3086C88.4023 23.3945 88.4258 23.4883 88.4258 23.5898C88.4258 23.6758 88.4102 23.7383 88.3789 23.7773C88.3555 23.8164 88.3164 23.8555 88.2617 23.8945C88.2148 23.9258 88.1367 23.9414 88.0273 23.9414L87.6523 23.9766C87.5195 23.9922 87.3984 24 87.2891 24C87.1875 24 87.1016 24 87.0312 24C86.9688 24 86.8984 23.9922 86.8203 23.9766C86.75 23.9531 86.6719 23.9414 86.5859 23.9414C86.3672 23.9414 86.1602 23.9688 85.9648 24.0234C85.7695 24.0859 85.5703 24.1172 85.3672 24.1172L84.8398 23.9414L84.0898 24.1172H83.8906L83.7266 24C83.7109 24 83.668 23.9961 83.5977 23.9883C83.5273 23.9727 83.4258 23.957 83.293 23.9414C83.2617 23.9414 83.2305 23.9258 83.1992 23.8945C83.1758 23.8867 83.1367 23.875 83.082 23.8594C83.0352 23.8438 82.957 23.8086 82.8477 23.7539C82.7852 23.668 82.7539 23.5859 82.7539 23.5078V23.4727V23.2852ZM96.5938 22.6172C96.5625 22.6328 96.5117 22.6797 96.4414 22.7578C96.3789 22.8281 96.3281 22.8633 96.2891 22.8633L95.8438 23.0859C95.8281 23.0938 95.8008 23.1133 95.7617 23.1445C95.7305 23.168 95.6914 23.1992 95.6445 23.2383C95.6055 23.2695 95.5703 23.3008 95.5391 23.332C95.5078 23.3555 95.4883 23.3672 95.4805 23.3672C95.4648 23.375 95.4336 23.3828 95.3867 23.3906C95.3477 23.3984 95.3008 23.4062 95.2461 23.4141C95.1992 23.4219 95.1523 23.4297 95.1055 23.4375C95.0664 23.4375 95.0352 23.4375 95.0117 23.4375C94.9492 23.4531 94.8906 23.4805 94.8359 23.5195C94.7891 23.5586 94.7383 23.6055 94.6836 23.6602C94.6367 23.707 94.582 23.7578 94.5195 23.8125C94.457 23.8594 94.3867 23.9023 94.3086 23.9414H93.1953C93.1562 23.9414 93.1016 23.9336 93.0312 23.918C92.9688 23.9023 92.8984 23.8828 92.8203 23.8594C92.75 23.8359 92.6797 23.8086 92.6094 23.7773C92.5391 23.7461 92.4844 23.7188 92.4453 23.6953C92.4453 23.6797 92.4219 23.6445 92.375 23.5898C92.3359 23.5273 92.3125 23.4766 92.3047 23.4375C92.2891 23.4219 92.2773 23.4023 92.2695 23.3789C92.2461 23.3555 92.2344 23.332 92.2344 23.3086L91.918 23.0039C91.8555 22.8789 91.8008 22.7227 91.7539 22.5352C91.7148 22.3398 91.6953 22.1797 91.6953 22.0547L91.7773 21.8086L91.6953 21.5625V21.4219C91.6953 21.3828 91.7031 21.332 91.7188 21.2695C91.7422 21.1992 91.7656 21.1328 91.7891 21.0703C91.8125 21 91.8359 20.9375 91.8594 20.8828C91.8828 20.8203 91.9023 20.7773 91.918 20.7539C91.9258 20.7461 91.9531 20.7188 92 20.6719C92.0547 20.6172 92.1133 20.5586 92.1758 20.4961C92.2383 20.4258 92.293 20.3633 92.3398 20.3086C92.3945 20.2539 92.4297 20.2148 92.4453 20.1914C92.4531 20.1914 92.4805 20.1641 92.5273 20.1094C92.582 20.0547 92.6094 20.0195 92.6094 20.0039L92.6328 19.957C92.6406 19.9414 92.6445 19.9258 92.6445 19.9102C92.7773 19.8242 92.9062 19.7344 93.0312 19.6406C93.1562 19.5391 93.2969 19.4531 93.4531 19.3828C93.4609 19.375 93.5156 19.3516 93.6172 19.3125C93.7266 19.2656 93.8438 19.2188 93.9688 19.1719C94.1016 19.1172 94.2305 19.0703 94.3555 19.0312C94.4805 18.9922 94.5742 18.9648 94.6367 18.9492C94.7148 18.9102 94.7969 18.8594 94.8828 18.7969C94.9688 18.7344 95.0508 18.6758 95.1289 18.6211C95.2148 18.5664 95.293 18.5195 95.3633 18.4805C95.4336 18.4336 95.4922 18.4102 95.5391 18.4102H95.8438C95.8516 18.4102 95.875 18.3984 95.9141 18.375C95.9297 18.3672 95.9492 18.3555 95.9727 18.3398C96.0039 18.332 96.0781 18.3203 96.1953 18.3047C96.3203 18.2891 96.4023 18.2812 96.4414 18.2812L96.5938 18.082C96.6484 18.0508 96.7031 18.0273 96.7578 18.0117C96.8125 17.9883 96.8633 17.9648 96.9102 17.9414C96.957 17.918 96.9961 17.8867 97.0273 17.8477C97.0664 17.8008 97.0977 17.7383 97.1211 17.6602C97.1758 17.4961 97.2109 17.3242 97.2266 17.1445C97.25 16.957 97.2617 16.7812 97.2617 16.6172V16.3594C97.2617 16.3438 97.2383 16.3008 97.1914 16.2305C97.1445 16.1602 97.1211 16.1094 97.1211 16.0781L96.9805 15.4805L96.7227 15.1641L96.5938 14.918C96.5625 14.9023 96.5312 14.8633 96.5 14.8008C96.4688 14.7383 96.4492 14.6875 96.4414 14.6484C96.4258 14.6016 96.3672 14.5586 96.2656 14.5195C96.1641 14.4727 96.0508 14.4336 95.9258 14.4023C95.8008 14.3633 95.6758 14.3359 95.5508 14.3203C95.4336 14.2969 95.3516 14.2852 95.3047 14.2852C95.2891 14.2852 95.2266 14.2852 95.1172 14.2852C95.0156 14.2773 94.9297 14.2734 94.8594 14.2734C94.7891 14.2734 94.6914 14.2812 94.5664 14.2969C94.4492 14.3047 94.3359 14.3281 94.2266 14.3672C94.1172 14.3984 94.0195 14.4453 93.9336 14.5078C93.8555 14.5703 93.8164 14.6523 93.8164 14.7539V14.8594C93.8242 14.875 93.8398 14.9102 93.8633 14.9648C93.8867 15.0117 93.9102 15.0664 93.9336 15.1289C93.957 15.1836 93.9766 15.2383 93.9922 15.293C94.0156 15.3398 94.0273 15.3711 94.0273 15.3867C94.0273 15.418 94.0156 15.4648 93.9922 15.5273C93.9766 15.582 93.9609 15.6406 93.9453 15.7031C93.8906 15.9531 93.8164 16.1445 93.7227 16.2773C93.6289 16.4102 93.4805 16.5391 93.2773 16.6641L93.1367 16.7695C93.1055 16.793 93.0781 16.8164 93.0547 16.8398H92.1641C92.0938 16.8398 92.0352 16.8125 91.9883 16.7578C91.9414 16.7031 91.9023 16.6406 91.8711 16.5703C91.8398 16.4922 91.8164 16.418 91.8008 16.3477C91.7852 16.2695 91.7773 16.2109 91.7773 16.1719C91.7773 16.125 91.7852 16.0625 91.8008 15.9844C91.8164 15.9062 91.8398 15.832 91.8711 15.7617C91.9023 15.6836 91.9336 15.6133 91.9648 15.5508C92.0039 15.4805 92.043 15.4258 92.082 15.3867C92.1055 15.332 92.1328 15.2852 92.1641 15.2461C92.1797 15.207 92.1953 15.1758 92.2109 15.1523C92.2344 15.1289 92.25 15.1133 92.2578 15.1055L92.4453 14.918C92.6172 14.8086 92.7617 14.6953 92.8789 14.5781C92.9961 14.4609 93.1328 14.3359 93.2891 14.2031L94.1094 13.6641C94.1875 13.5938 94.2578 13.543 94.3203 13.5117C94.3906 13.4727 94.4609 13.4414 94.5312 13.418C94.6016 13.3945 94.6719 13.375 94.7422 13.3594C94.8203 13.3438 94.9102 13.3164 95.0117 13.2773C95.0195 13.2773 95.0391 13.2695 95.0703 13.2539C95.1094 13.2383 95.1484 13.2227 95.1875 13.207C95.2266 13.1836 95.2656 13.1641 95.3047 13.1484C95.3438 13.1328 95.3711 13.1211 95.3867 13.1133C95.4258 13.1055 95.5 13.0898 95.6094 13.0664C95.7266 13.043 95.8477 13.0195 95.9727 12.9961C96.1055 12.9727 96.2305 12.9531 96.3477 12.9375C96.4648 12.9219 96.5469 12.9141 96.5938 12.9141C96.6328 12.9141 96.668 12.9297 96.6992 12.9609C96.7383 12.9844 96.7656 12.9961 96.7812 12.9961C96.8047 12.9961 96.8398 13 96.8867 13.0078C96.9336 13.0078 96.9805 13.0117 97.0273 13.0195C97.082 13.0273 97.1289 13.0352 97.168 13.043C97.2148 13.043 97.2461 13.0469 97.2617 13.0547C97.3086 13.0703 97.3711 13.0938 97.4492 13.125C97.5273 13.1484 97.6055 13.1758 97.6836 13.207C97.7617 13.2383 97.832 13.2656 97.8945 13.2891C97.957 13.3125 97.9961 13.3281 98.0117 13.3359C98.0195 13.3438 98.0391 13.3633 98.0703 13.3945C98.1016 13.4258 98.1367 13.4648 98.1758 13.5117C98.2227 13.5508 98.2656 13.5898 98.3047 13.6289C98.3438 13.668 98.3711 13.6992 98.3867 13.7227C98.4727 13.8477 98.5586 13.9609 98.6445 14.0625C98.7383 14.1641 98.8047 14.2812 98.8438 14.4141C98.8828 14.4922 98.9102 14.5781 98.9258 14.6719C98.9492 14.7578 98.9688 14.8438 98.9844 14.9297C99.0078 15.0156 99.0352 15.0977 99.0664 15.1758C99.0977 15.2539 99.1484 15.3242 99.2188 15.3867V16.1133C99.2188 16.6289 99.1992 17.1367 99.1602 17.6367C99.1289 18.1289 99.1055 18.6367 99.0898 19.1602C99.0586 19.2383 99.0312 19.3164 99.0078 19.3945C98.9844 19.4648 98.9727 19.5469 98.9727 19.6406C98.9727 19.7109 98.9805 19.7891 98.9961 19.875C99.0195 19.9609 99.0312 20.0234 99.0312 20.0625L98.9258 20.2852C98.918 20.3164 98.9141 20.3477 98.9141 20.3789V20.5078C98.9141 20.625 98.918 20.75 98.9258 20.8828C98.9336 21.0156 98.9531 21.1484 98.9844 21.2812C99.0156 21.4141 99.0586 21.5391 99.1133 21.6562C99.1758 21.7734 99.2617 21.8711 99.3711 21.9492C99.4102 21.9805 99.4609 22.0273 99.5234 22.0898C99.5938 22.1445 99.6445 22.1719 99.6758 22.1719H99.7227C99.8008 22.1719 99.8906 22.1602 99.9922 22.1367C100.094 22.1055 100.199 22.0742 100.309 22.043C100.418 22.0039 100.527 21.9688 100.637 21.9375C100.754 21.9062 100.867 21.8906 100.977 21.8906C101.125 21.8906 101.199 21.9375 101.199 22.0312C101.199 22.2812 101.148 22.5234 101.047 22.7578C100.953 22.9922 100.82 23.2031 100.648 23.3906C100.477 23.5703 100.277 23.7188 100.051 23.8359C99.8242 23.9453 99.5781 24 99.3125 24C99.0469 24 98.7891 23.9883 98.5391 23.9648C98.2891 23.9336 98.0156 23.8633 97.7188 23.7539L97.6367 23.6953C97.6211 23.6797 97.582 23.6328 97.5195 23.5547C97.4648 23.4688 97.4023 23.3789 97.332 23.2852C97.2695 23.1914 97.2109 23.1055 97.1562 23.0273C97.1016 22.9414 97.0703 22.8867 97.0625 22.8633L96.7812 22.6172H96.6992H96.5938ZM93.9453 20.8594C93.9453 20.9844 93.9648 21.1289 94.0039 21.293C94.0508 21.457 94.1172 21.6133 94.2031 21.7617C94.2891 21.9023 94.3945 22.0234 94.5195 22.125C94.6445 22.2266 94.7852 22.2773 94.9414 22.2773C94.9727 22.2773 95 22.2734 95.0234 22.2656C95.0469 22.2578 95.1133 22.2266 95.2227 22.1719L96.2891 22.0781C96.3125 22.0625 96.3477 22.0312 96.3945 21.9844C96.4492 21.9297 96.5 21.875 96.5469 21.8203C96.6016 21.7656 96.6484 21.7148 96.6875 21.668C96.7344 21.6211 96.7656 21.5859 96.7812 21.5625C96.7891 21.5625 96.8008 21.5391 96.8164 21.4922C96.8398 21.4453 96.8672 21.3867 96.8984 21.3164C96.9297 21.2461 96.957 21.1719 96.9805 21.0938C97.0117 21.0156 97.0391 20.9453 97.0625 20.8828C97.0781 20.8438 97.0898 20.7852 97.0977 20.707C97.1133 20.6289 97.1211 20.5859 97.1211 20.5781C97.1133 20.4922 97.1055 20.4062 97.0977 20.3203C97.0898 20.2344 97.0859 20.1484 97.0859 20.0625C97.0859 19.9844 97.0898 19.9141 97.0977 19.8516C97.1055 19.7812 97.1133 19.7109 97.1211 19.6406L97.2031 19.3828V19.1719C97.2031 19.0391 97.1602 18.918 97.0742 18.8086C96.9883 18.6992 96.8633 18.6445 96.6992 18.6445C96.5664 18.6445 96.4531 18.6758 96.3594 18.7383C96.2734 18.793 96.1719 18.8633 96.0547 18.9492C96.0156 18.9727 95.9375 19.0156 95.8203 19.0781C95.7031 19.1328 95.5781 19.1914 95.4453 19.2539C95.3203 19.3086 95.1992 19.3633 95.082 19.418C94.9727 19.4727 94.8984 19.5078 94.8594 19.5234L94.6367 19.6406C94.6211 19.6406 94.5898 19.6484 94.543 19.6641C94.4961 19.6797 94.4727 19.6914 94.4727 19.6992L94.3086 20.0039L94.0273 20.2852C93.9883 20.3711 93.9648 20.4727 93.957 20.5898C93.9492 20.6992 93.9453 20.7891 93.9453 20.8594ZM101.949 23.4961C101.949 23.3867 101.953 23.3125 101.961 23.2734C101.969 23.2266 101.996 23.1914 102.043 23.168C102.082 23.1523 102.137 23.1445 102.207 23.1445C102.285 23.1445 102.359 23.1445 102.43 23.1445C102.469 23.1445 102.516 23.1328 102.57 23.1094C102.625 23.0781 102.66 23.0586 102.676 23.0508C102.691 23.0352 102.715 23.0195 102.746 23.0039C102.785 22.9805 102.828 22.9609 102.875 22.9453C103.047 22.9141 103.168 22.8984 103.238 22.8984C103.309 22.8906 103.363 22.832 103.402 22.7227C103.418 22.5117 103.434 22.293 103.449 22.0664C103.473 21.832 103.484 21.6133 103.484 21.4102C103.484 21.1523 103.477 20.9062 103.461 20.6719C103.445 20.4297 103.426 20.1992 103.402 19.9805L103.449 19.7578V18.9375C103.449 18.75 103.457 18.5664 103.473 18.3867C103.496 18.1992 103.555 18.0156 103.648 17.8359L103.566 16.0898C103.559 16.0742 103.551 16.0469 103.543 16.0078C103.535 15.9609 103.527 15.9141 103.52 15.8672C103.512 15.8203 103.504 15.7773 103.496 15.7383C103.488 15.6992 103.484 15.6758 103.484 15.668C103.445 15.6289 103.418 15.6094 103.402 15.6094C103.402 15.5938 103.383 15.5742 103.344 15.5508C103.312 15.5273 103.273 15.5039 103.227 15.4805C103.188 15.4492 103.148 15.4258 103.109 15.4102C103.07 15.3867 103.047 15.3711 103.039 15.3633C103.031 15.3633 103.012 15.3516 102.98 15.3281C102.957 15.3047 102.93 15.2812 102.898 15.2578C102.867 15.2266 102.836 15.1992 102.805 15.1758C102.781 15.1445 102.766 15.125 102.758 15.1172C102.672 15.0938 102.594 15.0781 102.523 15.0703C102.453 15.0625 102.387 15.0547 102.324 15.0469C102.27 15.0312 102.215 15.0078 102.16 14.9766C102.105 14.9453 102.055 14.8906 102.008 14.8125C102.023 14.7969 102.027 14.7461 102.02 14.6602C102.02 14.5664 102.051 14.4766 102.113 14.3906C102.184 14.3359 102.258 14.3008 102.336 14.2852C102.414 14.2695 102.492 14.25 102.57 14.2266C102.641 14.2109 102.707 14.1953 102.77 14.1797C102.84 14.1562 102.91 14.1172 102.98 14.0625C102.988 14.0625 103.012 14.0508 103.051 14.0273C103.09 14.0039 103.129 13.9766 103.168 13.9453C103.207 13.9141 103.242 13.8867 103.273 13.8633C103.312 13.8398 103.336 13.8281 103.344 13.8281L103.93 13.582C103.938 13.5742 103.957 13.5547 103.988 13.5234C104.027 13.4844 104.066 13.4492 104.105 13.418C104.145 13.3789 104.18 13.3438 104.211 13.3125C104.242 13.2812 104.266 13.2617 104.281 13.2539H104.598C104.754 13.2539 104.875 13.2617 104.961 13.2773C105.055 13.293 105.121 13.3203 105.16 13.3594C105.207 13.3984 105.234 13.457 105.242 13.5352C105.258 13.6133 105.266 13.7148 105.266 13.8398V14.0625C105.273 14.1328 105.281 14.2109 105.289 14.2969C105.305 14.3828 105.328 14.4648 105.359 14.543C105.391 14.6133 105.434 14.6758 105.488 14.7305C105.551 14.7852 105.629 14.8125 105.723 14.8125C105.73 14.7969 105.754 14.7734 105.793 14.7422C105.832 14.7031 105.875 14.6641 105.922 14.625C105.969 14.5781 106.012 14.5391 106.051 14.5078C106.09 14.4766 106.113 14.457 106.121 14.4492L106.566 14.3086C106.582 14.3086 106.602 14.3047 106.625 14.2969C106.656 14.2812 106.68 14.2656 106.695 14.25C106.711 14.2422 106.762 14.2031 106.848 14.1328C106.934 14.0625 107.027 13.9883 107.129 13.9102C107.23 13.832 107.328 13.7617 107.422 13.6992C107.516 13.6289 107.582 13.5898 107.621 13.582C107.629 13.5742 107.656 13.5586 107.703 13.5352C107.758 13.5117 107.82 13.4883 107.891 13.4648C107.961 13.4336 108.027 13.4062 108.09 13.3828C108.152 13.3594 108.199 13.3438 108.23 13.3359H108.418C108.535 13.3047 108.648 13.2461 108.758 13.1602C108.875 13.0742 109.004 13.0312 109.145 13.0312H109.285L109.613 13.1953C109.621 13.2031 109.648 13.2109 109.695 13.2188C109.742 13.2266 109.793 13.2344 109.848 13.2422C109.91 13.2422 109.969 13.2461 110.023 13.2539C110.078 13.2539 110.117 13.2539 110.141 13.2539C110.367 13.3242 110.547 13.418 110.68 13.5352C110.82 13.6445 110.945 13.8008 111.055 14.0039C111.117 14.0898 111.164 14.1797 111.195 14.2734C111.234 14.3672 111.273 14.4531 111.312 14.5312C111.352 14.6094 111.402 14.6758 111.465 14.7305C111.535 14.7852 111.633 14.8125 111.758 14.8125C111.781 14.8125 111.809 14.8125 111.84 14.8125C111.879 14.8047 111.918 14.7852 111.957 14.7539L112.707 14.0039L113.094 13.8281L113.504 13.3359L113.973 13.1953C114.223 13.125 114.465 13.0703 114.699 13.0312C114.934 12.9922 115.164 12.9727 115.391 12.9727H115.648C115.773 12.9727 115.887 12.9844 115.988 13.0078C116.098 13.0234 116.223 13.0664 116.363 13.1367C116.371 13.1445 116.41 13.1797 116.48 13.2422C116.551 13.3047 116.594 13.3359 116.609 13.3359C116.609 13.3438 116.629 13.3555 116.668 13.3711C116.715 13.3867 116.762 13.4062 116.809 13.4297C116.855 13.4531 116.898 13.4727 116.938 13.4883C116.984 13.5039 117.016 13.5156 117.031 13.5234C117.047 13.5234 117.062 13.5312 117.078 13.5469C117.102 13.5547 117.113 13.5664 117.113 13.582C117.121 13.5898 117.133 13.6172 117.148 13.6641C117.172 13.7031 117.195 13.75 117.219 13.8047C117.25 13.8516 117.277 13.9023 117.301 13.957C117.324 14.0039 117.344 14.0391 117.359 14.0625C117.406 14.2422 117.48 14.4297 117.582 14.625C117.691 14.8125 117.758 14.9961 117.781 15.1758V15.6094L117.887 15.8672V16.1719C117.887 16.5078 117.871 16.8516 117.84 17.2031C117.816 17.5469 117.789 17.8867 117.758 18.2227L117.84 19.0781V19.2305L117.781 19.4414V20.1094C117.773 20.1484 117.766 20.2305 117.758 20.3555C117.75 20.4727 117.742 20.5977 117.734 20.7305C117.734 20.8555 117.73 20.9727 117.723 21.082C117.723 21.1914 117.723 21.2578 117.723 21.2812L117.699 21.5508C117.699 21.6367 117.703 21.7539 117.711 21.9023C117.727 22.0508 117.75 22.1562 117.781 22.2188C117.797 22.25 117.828 22.3008 117.875 22.3711C117.922 22.4414 118.051 22.5312 118.262 22.6406C118.387 22.7031 118.484 22.7617 118.555 22.8164C118.633 22.8633 118.695 22.9102 118.742 22.957C118.797 22.9961 118.84 23.0312 118.871 23.0625C118.91 23.0859 118.953 23.1094 119 23.1328C119.078 23.1797 119.117 23.2656 119.117 23.3906C119.117 23.5547 119.082 23.6758 119.012 23.7539C118.98 23.8164 118.953 23.8555 118.93 23.8711C118.914 23.8789 118.895 23.8828 118.871 23.8828H118.754C118.738 23.8828 118.723 23.8867 118.707 23.8945C118.691 23.8945 118.668 23.8945 118.637 23.8945L117.371 23.7422L117.031 23.7539H115.859C115.82 23.7539 115.754 23.7773 115.66 23.8242C115.566 23.8633 115.504 23.8828 115.473 23.8828L114.945 23.7539H114.723C114.637 23.7539 114.59 23.7344 114.582 23.6953L114.559 23.3086C114.559 23.168 114.605 23.0703 114.699 23.0156C114.793 22.9531 114.879 22.875 114.957 22.7812C115.066 22.6406 115.172 22.5156 115.273 22.4062C115.383 22.2969 115.516 22.207 115.672 22.1367L115.895 21.832L115.73 20.7773L115.918 20.0273L115.871 19.3828C115.863 19.3438 115.859 19.3125 115.859 19.2891C115.859 19.2578 115.859 19.2266 115.859 19.1953C115.859 19.1562 115.859 19.125 115.859 19.1016C115.867 19.0781 115.887 19.0469 115.918 19.0078C115.832 18.5312 115.789 18.0391 115.789 17.5312V17.0859C115.852 17 115.887 16.9336 115.895 16.8867C115.91 16.8398 115.918 16.7852 115.918 16.7227V16.5586L115.707 15.4219C115.699 15.4219 115.688 15.418 115.672 15.4102C115.656 15.3945 115.648 15.3789 115.648 15.3633C115.633 15.3633 115.605 15.3555 115.566 15.3398C115.535 15.3242 115.5 15.3047 115.461 15.2812C115.43 15.2578 115.398 15.2383 115.367 15.2227C115.336 15.1992 115.316 15.1836 115.309 15.1758L115.004 14.9414C114.941 14.8555 114.855 14.8047 114.746 14.7891C114.637 14.7656 114.52 14.7539 114.395 14.7539H114.113C113.973 14.7539 113.855 14.7578 113.762 14.7656C113.676 14.7656 113.555 14.7812 113.398 14.8125C113.25 14.8828 113.145 14.957 113.082 15.0352C113.02 15.0742 112.957 15.1172 112.895 15.1641C112.832 15.2031 112.77 15.2422 112.707 15.2812C112.699 15.2969 112.656 15.3164 112.578 15.3398C112.5 15.3555 112.449 15.3633 112.426 15.3633C112.246 15.4258 112.109 15.5117 112.016 15.6211C111.93 15.7305 111.844 15.8672 111.758 16.0312C111.75 16.0469 111.73 16.0781 111.699 16.125C111.668 16.1719 111.633 16.2266 111.594 16.2891C111.555 16.3438 111.52 16.3984 111.488 16.4531C111.457 16.5 111.438 16.5352 111.43 16.5586V16.7812C111.438 16.8047 111.445 16.8828 111.453 17.0156C111.461 17.1406 111.469 17.2812 111.477 17.4375C111.484 17.5859 111.488 17.7305 111.488 17.8711C111.496 18.0039 111.5 18.0859 111.5 18.1172V18.3867L111.699 18.7734V18.8906C111.699 19.0156 111.684 19.1406 111.652 19.2656C111.629 19.3906 111.617 19.5156 111.617 19.6406L111.699 20.1914C111.699 20.3867 111.684 20.5742 111.652 20.7539C111.621 20.9336 111.594 21.1289 111.57 21.3398C111.57 21.3555 111.566 21.4102 111.559 21.5039C111.559 21.5898 111.559 21.6641 111.559 21.7266C111.559 21.75 111.562 21.7852 111.57 21.832C111.586 21.8711 111.598 21.918 111.605 21.9727C111.613 22.0195 111.621 22.0664 111.629 22.1133C111.645 22.1523 111.652 22.1797 111.652 22.1953C111.668 22.25 111.684 22.2891 111.699 22.3125C111.715 22.3281 111.727 22.3398 111.734 22.3477C111.75 22.3555 111.766 22.3672 111.781 22.3828C111.797 22.3906 111.816 22.418 111.84 22.4648C111.84 22.4648 111.852 22.4805 111.875 22.5117C111.898 22.543 111.922 22.5781 111.945 22.6172C111.977 22.6484 112.004 22.6797 112.027 22.7109C112.059 22.7422 112.078 22.7656 112.086 22.7812C112.117 22.7969 112.184 22.8164 112.285 22.8398C112.395 22.8633 112.508 22.8906 112.625 22.9219C112.75 22.9531 112.871 22.9922 112.988 23.0391C113.105 23.0781 113.188 23.1211 113.234 23.168C113.297 23.1992 113.332 23.2305 113.34 23.2617C113.355 23.2852 113.363 23.3164 113.363 23.3555V23.5898C113.363 23.6289 113.355 23.6719 113.34 23.7188C113.332 23.7578 113.297 23.8047 113.234 23.8594C113.133 23.9141 112.984 23.957 112.789 23.9883C112.594 24.0117 112.434 24.0234 112.309 24.0234C112.199 24.0234 112.102 24.0195 112.016 24.0117C111.938 24.0039 111.867 24 111.805 24H111.43L111.09 23.9414C111.035 23.9258 110.98 23.9141 110.926 23.9062C110.879 23.8984 110.812 23.8945 110.727 23.8945C110.641 23.8945 110.551 23.8945 110.457 23.8945C110.371 23.8945 110.285 23.9023 110.199 23.918L109.812 23.9414C109.727 23.9648 109.656 23.9844 109.602 24C109.547 24.0078 109.492 24.0156 109.438 24.0234C109.391 24.0391 109.34 24.0469 109.285 24.0469C109.23 24.0547 109.164 24.0586 109.086 24.0586C109.047 24.0586 108.98 24.0508 108.887 24.0352C108.793 24.0195 108.695 24 108.594 23.9766C108.5 23.9531 108.41 23.9219 108.324 23.8828C108.246 23.8438 108.195 23.8008 108.172 23.7539C108.117 23.6992 108.09 23.6406 108.09 23.5781C108.09 23.5547 108.094 23.5352 108.102 23.5195C108.109 23.4961 108.113 23.4609 108.113 23.4141C108.121 23.2891 108.145 23.2109 108.184 23.1797C108.23 23.1406 108.281 23.1016 108.336 23.0625C108.391 23.0156 108.488 22.9883 108.629 22.9805C108.77 22.9727 108.91 22.9531 109.051 22.9219C109.199 22.8906 109.328 22.832 109.438 22.7461C109.555 22.6602 109.613 22.5117 109.613 22.3008L109.625 21.9961L109.508 21.5273L109.625 20.1328L109.484 18.7266C109.484 18.5547 109.516 18.3984 109.578 18.2578C109.641 18.1172 109.672 17.9688 109.672 17.8125L109.426 17.4141V17.2734L109.508 16.9805V16.3945C109.508 16.0352 109.469 15.7461 109.391 15.5273C109.32 15.3086 109.207 15.1406 109.051 15.0234C108.902 14.9062 108.703 14.8281 108.453 14.7891C108.211 14.75 107.922 14.7305 107.586 14.7305C107.523 14.7305 107.449 14.7344 107.363 14.7422C107.285 14.75 107.23 14.7539 107.199 14.7539L106.309 15.1172C106.199 15.1484 106.105 15.1758 106.027 15.1992C105.957 15.2227 105.879 15.2773 105.793 15.3633C105.746 15.4023 105.695 15.4609 105.641 15.5391C105.586 15.6172 105.535 15.707 105.488 15.8086C105.441 15.9023 105.398 16 105.359 16.1016C105.328 16.1953 105.312 16.2734 105.312 16.3359C105.312 16.375 105.316 16.4102 105.324 16.4414C105.34 16.4648 105.355 16.5039 105.371 16.5586V17.3555L105.512 17.7773V18.6445C105.512 18.6602 105.52 18.6992 105.535 18.7617C105.559 18.8242 105.578 18.8594 105.594 18.8672V19.0781C105.578 19.0859 105.559 19.1328 105.535 19.2188C105.52 19.3047 105.512 19.3594 105.512 19.3828V20.0508L105.371 21.1055C105.371 21.1133 105.367 21.1523 105.359 21.2227C105.359 21.293 105.355 21.3711 105.348 21.457C105.34 21.543 105.332 21.625 105.324 21.7031C105.324 21.7812 105.32 21.8359 105.312 21.8672C105.312 21.9766 105.324 22.0703 105.348 22.1484C105.379 22.2188 105.418 22.2852 105.465 22.3477C105.52 22.4023 105.582 22.4531 105.652 22.5C105.723 22.5469 105.797 22.6016 105.875 22.6641C105.914 22.6953 105.961 22.7227 106.016 22.7461C106.07 22.7695 106.133 22.7812 106.203 22.7812L106.473 22.9453C106.551 22.9453 106.621 22.9531 106.684 22.9688C106.746 22.9844 106.797 23.0156 106.836 23.0625C106.875 23.1172 106.898 23.1602 106.906 23.1914C106.914 23.2227 106.922 23.2617 106.93 23.3086V23.4727C106.93 23.5352 106.926 23.5977 106.918 23.6602C106.91 23.7148 106.883 23.7617 106.836 23.8008C106.727 23.9023 106.578 23.9609 106.391 23.9766C106.203 23.9922 106.039 24 105.898 24L105.113 23.9648H103.73L102.512 24.0352C102.496 24.0352 102.473 24.0312 102.441 24.0234C102.418 24.0234 102.395 24.0156 102.371 24C102.355 23.9844 102.309 23.9766 102.23 23.9766C102.152 23.9688 102.098 23.957 102.066 23.9414C102.012 23.9023 101.977 23.8398 101.961 23.7539C101.953 23.668 101.949 23.582 101.949 23.4961ZM120.43 18.8672C120.43 18.8281 120.438 18.7539 120.453 18.6445C120.469 18.5273 120.484 18.4062 120.5 18.2812C120.523 18.1484 120.539 18.0234 120.547 17.9062C120.562 17.7891 120.57 17.7109 120.57 17.6719C120.602 17.2969 120.684 16.9141 120.816 16.5234C120.957 16.1328 121.133 15.7578 121.344 15.3984C121.555 15.0312 121.797 14.6953 122.07 14.3906C122.352 14.0859 122.656 13.8281 122.984 13.6172C122.992 13.6016 123.031 13.5742 123.102 13.5352C123.18 13.4961 123.262 13.457 123.348 13.418C123.434 13.3789 123.516 13.3398 123.594 13.3008C123.672 13.2617 123.719 13.2344 123.734 13.2188C123.789 13.1953 123.859 13.1562 123.945 13.1016C124.039 13.0391 124.133 12.9805 124.227 12.9258C124.32 12.8633 124.414 12.8086 124.508 12.7617C124.602 12.7148 124.688 12.6914 124.766 12.6914C124.836 12.6914 124.891 12.6992 124.93 12.7148C124.977 12.7305 125.031 12.7539 125.094 12.7852C125.227 12.7695 125.352 12.7578 125.469 12.75C125.594 12.7344 125.719 12.7266 125.844 12.7266C125.977 12.7266 126.102 12.7344 126.219 12.75C126.336 12.7578 126.461 12.7695 126.594 12.7852C126.594 12.7852 126.609 12.793 126.641 12.8086C126.672 12.8164 126.707 12.8281 126.746 12.8438C126.785 12.8594 126.824 12.875 126.863 12.8906C126.902 12.9062 126.934 12.918 126.957 12.9258C126.98 12.9336 127.027 12.957 127.098 12.9961C127.168 13.0273 127.246 13.0664 127.332 13.1133C127.418 13.1602 127.5 13.2031 127.578 13.2422C127.656 13.2734 127.711 13.293 127.742 13.3008C127.742 13.3086 127.77 13.3203 127.824 13.3359C127.879 13.3516 127.914 13.3594 127.93 13.3594L128.398 13.6172L129.453 14.5781C129.484 14.6172 129.531 14.7227 129.594 14.8945C129.664 15.0586 129.73 15.2422 129.793 15.4453C129.863 15.6406 129.922 15.8281 129.969 16.0078C130.023 16.1875 130.051 16.3047 130.051 16.3594C130.051 16.4688 130.02 16.5586 129.957 16.6289C129.895 16.6914 129.82 16.7461 129.734 16.793C129.648 16.832 129.555 16.8633 129.453 16.8867C129.359 16.9023 129.277 16.9141 129.207 16.9219H129.16C129.082 16.9297 128.953 16.9375 128.773 16.9453C128.602 16.9531 128.418 16.9609 128.223 16.9688C128.035 16.9688 127.855 16.9727 127.684 16.9805C127.52 16.9805 127.406 16.9805 127.344 16.9805C127.258 17.0195 127.18 17.043 127.109 17.0508C127.047 17.0586 126.98 17.0625 126.91 17.0625L126.078 16.9805C125.922 16.9805 125.758 17.0078 125.586 17.0625C125.422 17.1172 125.262 17.1445 125.105 17.1445C125.004 17.1445 124.902 17.1094 124.801 17.0391C124.707 16.9609 124.602 16.9219 124.484 16.9219C124.469 16.9219 124.426 16.9414 124.355 16.9805C124.293 17.0117 124.246 17.0273 124.215 17.0273L123.324 16.9688C123.199 16.9688 123.082 16.9922 122.973 17.0391C122.863 17.0859 122.738 17.168 122.598 17.2852C122.574 17.4883 122.559 17.668 122.551 17.8242C122.543 17.9727 122.539 18.1406 122.539 18.3281C122.539 18.4922 122.547 18.625 122.562 18.7266C122.586 18.8281 122.617 18.9258 122.656 19.0195C122.695 19.1055 122.742 19.1953 122.797 19.2891C122.852 19.375 122.914 19.4844 122.984 19.6172L123.102 19.8398C123.305 20.2852 123.566 20.6445 123.887 20.918C124.207 21.1914 124.621 21.4062 125.129 21.5625C125.129 21.6016 125.184 21.6406 125.293 21.6797C125.41 21.7109 125.539 21.7344 125.68 21.75C125.844 21.7812 126.031 21.8008 126.242 21.8086C126.5 21.8086 126.766 21.793 127.039 21.7617C127.312 21.7305 127.578 21.6797 127.836 21.6094C128.094 21.5391 128.336 21.4453 128.562 21.3281C128.797 21.2109 128.996 21.0664 129.16 20.8945H129.348C129.441 20.8945 129.504 20.9102 129.535 20.9414C129.574 20.9648 129.613 21.0391 129.652 21.1641C129.629 21.3906 129.594 21.5938 129.547 21.7734C129.508 21.9453 129.449 22.1016 129.371 22.2422C129.301 22.3828 129.207 22.5156 129.09 22.6406C128.973 22.7578 128.82 22.8789 128.633 23.0039C128.57 23.0508 128.512 23.0859 128.457 23.1094C128.402 23.125 128.352 23.1406 128.305 23.1562C128.258 23.1719 128.207 23.1953 128.152 23.2266C128.105 23.2578 128.051 23.3125 127.988 23.3906L126.734 24.0234L126.594 24L125.715 24.1406C125.059 24.1406 124.469 24.0469 123.945 23.8594C123.422 23.6719 122.953 23.4062 122.539 23.0625C122.133 22.7109 121.777 22.293 121.473 21.8086C121.176 21.3242 120.922 20.7891 120.711 20.2031C120.641 19.9922 120.598 19.7773 120.582 19.5586C120.566 19.332 120.516 19.1016 120.43 18.8672ZM122.738 15.668C122.738 15.707 122.742 15.7656 122.75 15.8438C122.766 15.9219 122.785 16 122.809 16.0781C122.832 16.1562 122.859 16.2266 122.891 16.2891C122.922 16.3516 122.953 16.3867 122.984 16.3945H123.348L124.906 16.1484L125.902 16.2305C126.074 16.2305 126.227 16.2148 126.359 16.1836C126.5 16.1523 126.652 16.1172 126.816 16.0781C126.965 16.0547 127.09 16.0352 127.191 16.0195C127.301 15.9961 127.387 15.957 127.449 15.9023C127.52 15.8477 127.57 15.7773 127.602 15.6914C127.633 15.5977 127.648 15.4688 127.648 15.3047C127.648 15.0312 127.574 14.793 127.426 14.5898C127.277 14.3867 127.09 14.2188 126.863 14.0859C126.645 13.9453 126.402 13.8438 126.137 13.7812C125.879 13.7109 125.637 13.6758 125.41 13.6758C125.355 13.6758 125.277 13.6914 125.176 13.7227C125.074 13.7461 124.957 13.7812 124.824 13.8281C124.699 13.8672 124.566 13.9141 124.426 13.9688C124.293 14.0156 124.168 14.0703 124.051 14.1328C123.941 14.1875 123.844 14.2422 123.758 14.2969C123.672 14.3438 123.617 14.3867 123.594 14.4258L123.348 14.9531C123.301 15.0078 123.242 15.0586 123.172 15.1055C123.102 15.1523 123.031 15.2031 122.961 15.2578C122.898 15.3125 122.844 15.375 122.797 15.4453C122.758 15.5078 122.738 15.582 122.738 15.668Z" fill="white"/>
<path d="M10.5894 10.625C10.4934 11.3016 10.4451 11.8708 10.4408 12.4H25.272C25.3184 11.4738 25.2619 10.5889 25.0272 10.1444L24.9994 10.0918C24.3979 8.95249 24.2237 8.62245 23.161 8.60665C21.7415 6.88376 20.6074 5.62718 17.4645 5.81941C14.3216 6.01164 12.3452 7.70823 10.5894 10.625Z" fill="white" fill-opacity="0.6"/>
<path d="M10.884 15.5267C6.59321 15.4193 11.1694 21.4799 11.2769 20.5293C11.3103 20.2344 11.5972 20.6686 12.0858 21.4078C13.1715 23.0506 15.253 26.1999 17.7592 26.1999C21.3931 26.1999 22.6944 23.9744 23.9468 20.4284C26.1382 19.2444 28.1812 14.5704 24.6139 15.5057C24.5877 15.5244 24.5616 15.5318 24.5361 15.5267C24.5623 15.5194 24.5883 15.5124 24.6139 15.5057C24.8945 15.305 25.2016 13.8051 25.272 12.4H10.4408C10.4323 13.4281 10.5895 14.3053 10.884 15.5267Z" fill="white" fill-opacity="0.6"/>
<path d="M10.4408 12.4C10.4323 13.4281 10.5895 14.3053 10.884 15.5267C6.59321 15.4193 11.1694 21.4799 11.2769 20.5293C11.3103 20.2344 11.5972 20.6686 12.0858 21.4078C13.1715 23.0506 15.253 26.1999 17.7592 26.1999C21.3931 26.1999 22.6944 23.9744 23.9468 20.4284C26.1382 19.2444 28.1812 14.5704 24.6139 15.5057M10.4408 12.4C10.4451 11.8708 10.4934 11.3016 10.5894 10.625C12.3452 7.70823 14.3216 6.01164 17.4645 5.81941C20.6074 5.62718 21.7415 6.88376 23.161 8.60665C24.2237 8.62245 24.3979 8.95249 24.9994 10.0918L25.0272 10.1444C25.2619 10.5889 25.3184 11.4738 25.272 12.4M10.4408 12.4H25.272M24.6139 15.5057C24.5883 15.5124 24.5623 15.5194 24.5361 15.5267C24.5616 15.5318 24.5877 15.5244 24.6139 15.5057ZM24.6139 15.5057C24.8945 15.305 25.2016 13.8051 25.272 12.4M10.2587 12.4H25.272M25.3449 12.4H25.272" stroke="white" stroke-width="2"/>
<path d="M22.0259 31H26.5517C29.8845 31 32.5862 28.3137 32.5862 25V20.4285" stroke="white" stroke-width="2" stroke-linecap="round"/>
<path d="M13.5774 31H8.44806C5.1153 31 2.41357 28.3137 2.41357 25V20.4285" stroke="white" stroke-width="2" stroke-linecap="round"/>
<path d="M2.41357 13.3V6.99999C2.41357 3.68628 5.1153 1 8.44806 1H13.2756" stroke="white" stroke-width="2" stroke-linecap="round"/>
<path d="M22.0259 1H26.5517C29.8845 1 32.5862 3.68629 32.5862 6.99999V13.3" stroke="white" stroke-width="2" stroke-linecap="round"/>
<path d="M0 12.4H35" stroke="white" stroke-width="3"/>
</svg>
