<svg width="35" height="32" viewBox="0 0 35 32" fill="none" xmlns="http://www.w3.org/2000/svg">
<path d="M10.5894 10.625C10.4934 11.3016 10.4451 11.8708 10.4408 12.4H25.272C25.3184 11.4738 25.2619 10.5889 25.0272 10.1444L24.9994 10.0918C24.3979 8.95249 24.2237 8.62245 23.161 8.60665C21.7415 6.88376 20.6074 5.62718 17.4645 5.81941C14.3216 6.01164 12.3452 7.70823 10.5894 10.625Z" fill="white" fill-opacity="0.6"/>
<path d="M10.884 15.5267C6.59321 15.4193 11.1694 21.4799 11.2769 20.5293C11.3103 20.2344 11.5972 20.6686 12.0858 21.4078C13.1715 23.0506 15.253 26.1999 17.7592 26.1999C21.3931 26.1999 22.6944 23.9744 23.9468 20.4284C26.1382 19.2444 28.1812 14.5704 24.6139 15.5057C24.5877 15.5244 24.5616 15.5318 24.5361 15.5267C24.5623 15.5194 24.5883 15.5124 24.6139 15.5057C24.8945 15.305 25.2016 13.8051 25.272 12.4H10.4408C10.4323 13.4281 10.5895 14.3053 10.884 15.5267Z" fill="white" fill-opacity="0.6"/>
<path d="M10.4408 12.4C10.4323 13.4281 10.5895 14.3053 10.884 15.5267C6.59321 15.4193 11.1694 21.4799 11.2769 20.5293C11.3103 20.2344 11.5972 20.6686 12.0858 21.4078C13.1715 23.0506 15.253 26.1999 17.7592 26.1999C21.3931 26.1999 22.6944 23.9744 23.9468 20.4284C26.1382 19.2444 28.1812 14.5704 24.6139 15.5057M10.4408 12.4C10.4451 11.8708 10.4934 11.3016 10.5894 10.625C12.3452 7.70823 14.3216 6.01164 17.4645 5.81941C20.6074 5.62718 21.7415 6.88376 23.161 8.60665C24.2237 8.62245 24.3979 8.95249 24.9994 10.0918L25.0272 10.1444C25.2619 10.5889 25.3184 11.4738 25.272 12.4M10.4408 12.4H25.272M24.6139 15.5057C24.5883 15.5124 24.5623 15.5194 24.5361 15.5267C24.5616 15.5318 24.5877 15.5244 24.6139 15.5057ZM24.6139 15.5057C24.8945 15.305 25.2016 13.8051 25.272 12.4M10.2587 12.4H25.272M25.3449 12.4H25.272" stroke="white" stroke-width="2"/>
<path d="M22.0259 31H26.5517C29.8845 31 32.5862 28.3137 32.5862 25V20.4285" stroke="white" stroke-width="2" stroke-linecap="round"/>
<path d="M13.5774 31H8.44806C5.1153 31 2.41357 28.3137 2.41357 25V20.4285" stroke="white" stroke-width="2" stroke-linecap="round"/>
<path d="M2.41357 13.3V6.99999C2.41357 3.68628 5.1153 1 8.44806 1H13.2756" stroke="white" stroke-width="2" stroke-linecap="round"/>
<path d="M22.0259 1H26.5517C29.8845 1 32.5862 3.68629 32.5862 6.99999V13.3" stroke="white" stroke-width="2" stroke-linecap="round"/>
<path d="M0 12.4H35" stroke="white" stroke-width="3"/>
</svg>
